<svg width="27" height="35" viewBox="0 0 27 35" fill="none" xmlns="http://www.w3.org/2000/svg">
<g clip-path="url(#clip0_2_715)">
<path d="M13.828 0C9.29831 0 5.62677 3.65598 5.62677 8.16648C5.62677 13.9637 13.828 24.1714 13.828 24.1714C13.828 24.1714 22.0278 13.882 22.0278 8.16648C22.0278 3.65598 18.3563 0 13.828 0ZM13.828 15.5784C9.72668 15.5784 9.72668 9.24483 13.828 9.24483C17.9293 9.24483 17.9293 15.5784 13.828 15.5784Z" fill="#41C0F0"/>
<path d="M17.6819 28.4172H22.3558L26.2931 34.2961H0.706879L4.64279 28.4172H9.07069" stroke="#1C1C1C" stroke-miterlimit="10" stroke-linecap="round" stroke-linejoin="round"/>
<path d="M5.62677 12.0857C5.62677 7.57523 9.29831 3.92065 13.8266 3.92065C18.3549 3.92065 22.0264 7.57664 22.0264 12.0857C22.0264 17.8013 13.8266 28.0907 13.8266 28.0907C13.8266 28.0907 5.62677 17.8829 5.62677 12.0857Z" stroke="#1C1C1C" stroke-miterlimit="10" stroke-linecap="round" stroke-linejoin="round"/>
<path d="M13.828 14.9435C15.2772 14.9435 16.4519 13.7737 16.4519 12.3307C16.4519 10.8876 15.2772 9.71783 13.828 9.71783C12.3788 9.71783 11.2041 10.8876 11.2041 12.3307C11.2041 13.7737 12.3788 14.9435 13.828 14.9435Z" stroke="#1C1C1C" stroke-miterlimit="10"/>
</g>
<defs>
<clipPath id="clip0_2_715">
<rect width="27" height="35" fill="white"/>
</clipPath>
</defs>
</svg>
